<svg width="21" height="20" viewBox="0 0 21 20" fill="none" xmlns="http://www.w3.org/2000/svg">
<path d="M18.3098 8.8286V10.0001C18.3098 13.6818 18.3098 15.5228 17.166 16.6665C16.0223 17.8103 14.1814 17.8103 10.4996 17.8103C6.81788 17.8103 4.977 17.8103 3.83323 16.6665C2.68945 15.5228 2.68945 13.6818 2.68945 10.0001C2.68945 9.1189 2.68945 8.34308 2.70514 7.65707M11.6712 2.18994H10.4996C6.81788 2.18994 4.977 2.18994 3.83323 3.33372C3.48886 3.67808 3.24818 4.08563 3.07996 4.58759" stroke="white" stroke-width="1.25556" stroke-linecap="round"/>
<path d="M6.59473 11.5621L7.99813 9.87795C8.55426 9.21065 8.83231 8.87692 9.1981 8.87692C9.56392 8.87692 9.84197 9.21065 10.3981 9.87795L10.6015 10.1221C11.1577 10.7894 11.4357 11.1231 11.8015 11.1231C12.1673 11.1231 12.4454 10.7894 13.0015 10.1221L14.4049 8.43799" stroke="white" stroke-width="1.25556" stroke-linecap="round"/>
<path d="M13.624 4.533C13.624 5.15441 13.8709 5.75038 14.3103 6.18979C14.7497 6.6292 15.3457 6.87605 15.9671 6.87605C16.5885 6.87605 17.1845 6.6292 17.6239 6.18979C18.0633 5.75038 18.3101 5.15441 18.3101 4.533C18.3101 3.91158 18.0633 3.31561 17.6239 2.87621C17.1845 2.4368 16.5885 2.18994 15.9671 2.18994C15.3457 2.18994 14.7497 2.4368 14.3103 2.87621C13.8709 3.31561 13.624 3.91158 13.624 4.533Z" stroke="white" stroke-width="1.25556"/>
</svg>
