<svg width="37" height="36" viewBox="0 0 37 36" fill="none" xmlns="http://www.w3.org/2000/svg">
<path d="M22.0418 16.1441L21.6482 15.7506C19.909 14.0115 17.0893 14.0115 15.3502 15.7506C13.6111 17.4897 13.6111 20.3093 15.3502 22.0485C17.0893 23.7876 19.909 23.7876 21.6482 22.0485C22.3888 21.3079 22.814 20.3713 22.9238 19.4058M22.0418 16.1441L19.9054 16.5941M22.0418 16.1441V13.7825" stroke="#FFF7CC" stroke-width="2.26" stroke-linecap="round" stroke-linejoin="round"/>
<path d="M4.44141 19.9169C4.44141 15.6092 4.44141 13.4551 5.4944 11.9079C5.95026 11.238 6.53603 10.6629 7.21826 10.2154C8.2309 9.55104 9.49865 9.31359 11.4396 9.22872C12.3659 9.22872 13.1634 8.53961 13.345 7.64786C13.6175 6.31025 14.8137 5.34741 16.203 5.34741H20.7964C22.1857 5.34741 23.3819 6.31025 23.6545 7.64786C23.8361 8.53961 24.6335 9.22872 25.5598 9.22872C27.5009 9.31359 28.7685 9.55104 29.7813 10.2154C30.4634 10.6629 31.0492 11.238 31.5051 11.9079C32.5581 13.4551 32.5581 15.6092 32.5581 19.9169C32.5581 24.2248 32.5581 26.3788 31.5051 27.9261C31.0492 28.5958 30.4634 29.1709 29.7813 29.6186C28.2053 30.6524 26.0115 30.6524 21.6238 30.6524H15.3757C10.988 30.6524 8.7942 30.6524 7.21826 29.6186C6.53603 29.1709 5.95026 28.5958 5.4944 27.9261C5.19699 27.489 4.98358 27.0036 4.83044 26.4349" stroke="#FFF7CC" stroke-width="2.26" stroke-linecap="round"/>
</svg>
