<svg width="18" height="19" viewBox="0 0 18 19" fill="none" xmlns="http://www.w3.org/2000/svg">
<path d="M16.0312 9.5C16.0312 6.84835 16.0312 5.52253 15.2075 4.69876C14.3838 3.875 13.0579 3.875 10.4062 3.875H7.59375C4.9421 3.875 3.61628 3.875 2.79251 4.69876C1.96875 5.52253 1.96875 6.84835 1.96875 9.5C1.96875 12.1516 1.96875 13.4775 2.79251 14.3012C3.61628 15.125 4.9421 15.125 7.59375 15.125H10.4062C13.0579 15.125 14.3838 15.125 15.2075 14.3012C15.6667 13.8419 15.87 13.2266 15.9599 12.3125" stroke="white" stroke-width="1.125" stroke-linecap="round"/>
<path d="M7.59375 12.3125H4.78125" stroke="white" stroke-width="1.125" stroke-linecap="round"/>
<path d="M10.4062 12.3125H9.35156" stroke="white" stroke-width="1.125" stroke-linecap="round"/>
<path d="M1.96875 8.09375H5.48438M16.0312 8.09375H8.29688" stroke="white" stroke-width="1.125" stroke-linecap="round"/>
</svg>
