<svg width="17" height="17" viewBox="0 0 17 17" fill="none" xmlns="http://www.w3.org/2000/svg">
<path d="M6.0332 12.2075C6.55097 12.2075 6.9707 12.6273 6.9707 13.145C6.9707 13.6628 6.55097 14.0825 6.0332 14.0825C5.51543 14.0825 5.0957 13.6628 5.0957 13.145C5.0957 12.6273 5.51543 12.2075 6.0332 12.2075Z" stroke="#006F00"/>
<path d="M11.6582 12.2075C12.176 12.2075 12.5957 12.6272 12.5957 13.145C12.5957 13.6628 12.176 14.0825 11.6582 14.0825C11.1405 14.0825 10.7207 13.6628 10.7207 13.145C10.7207 12.6272 11.1405 12.2075 11.6582 12.2075Z" stroke="#006F00"/>
<path d="M9.4707 9.08252V7.83252M9.4707 7.83252V6.58252M9.4707 7.83252H10.7207M9.4707 7.83252H8.2207" stroke="#006F00" stroke-linecap="round"/>
<path d="M2.5957 2.83252L2.75896 2.88992C3.57245 3.17593 3.9792 3.31893 4.21185 3.65938C4.4445 3.99984 4.4445 4.45206 4.4445 5.35649V7.05752C4.4445 8.89602 4.48403 9.50271 5.02553 10.0739C5.56703 10.645 6.43856 10.645 8.18164 10.645H8.8457M11.496 10.645C12.4716 10.645 12.9594 10.645 13.3042 10.364C13.649 10.083 13.7475 9.60527 13.9445 8.64971L14.2568 7.13424C14.4738 6.04733 14.5822 5.50388 14.3048 5.14319C14.0273 4.78252 13.0793 4.78252 12.0262 4.78252H8.23539M4.4445 4.78252H5.7207" stroke="#006F00" stroke-linecap="round"/>
</svg>
