<svg width="16" height="16" viewBox="0 0 16 16" fill="none" xmlns="http://www.w3.org/2000/svg">
<path d="M3.35484 8.25419C3.18463 8.05918 2.8886 8.03913 2.69364 8.20933C2.49867 8.37952 2.4786 8.67556 2.64881 8.8705L3.35484 8.25419ZM4.96553 10.8117L4.61251 11.1198C4.70151 11.2218 4.83021 11.2803 4.96553 11.2803C5.10084 11.2803 5.22955 11.2218 5.31854 11.1198L4.96553 10.8117ZM10.2278 5.49653C10.398 5.30157 10.3779 5.00554 10.1829 4.83533C9.988 4.66513 9.69196 4.68519 9.52176 4.88016L10.2278 5.49653ZM7.06712 7.69185C6.89692 7.8868 6.91704 8.18283 7.11198 8.35303C7.30692 8.52323 7.60296 8.50318 7.77316 8.30817L7.06712 7.69185ZM6.54585 9.714C6.71606 9.51906 6.69599 9.22302 6.50103 9.05282C6.30606 8.88263 6.01004 8.90268 5.83982 9.09769L6.54585 9.714ZM2.64881 8.8705L4.61251 11.1198L5.31854 10.5035L3.35484 8.25419L2.64881 8.8705ZM5.31854 11.1198L6.54585 9.714L5.83982 9.09769L4.61251 10.5035L5.31854 11.1198ZM7.77316 8.30817L9.00048 6.90234L8.29444 6.286L7.06712 7.69185L7.77316 8.30817ZM9.00048 6.90234L10.2278 5.49653L9.52176 4.88016L8.29444 6.286L9.00048 6.90234Z" fill="#98FF98"/>
<path d="M12.9671 5.22754L10.2893 8.03921M7.34375 10.4994L7.61142 10.8509L8.95034 9.44504" stroke="#98FF98" stroke-width="1.00444" stroke-linecap="round" stroke-linejoin="round"/>
</svg>
