<svg width="18" height="18" viewBox="0 0 18 18" fill="none" xmlns="http://www.w3.org/2000/svg">
<path d="M7.59191 4.78174C7.58174 5.98167 7.51512 6.64316 7.07889 7.07939C6.64267 7.51561 5.98117 7.58224 4.78125 7.59241" stroke="white" stroke-width="1.125" stroke-linecap="round"/>
<path d="M7.59191 13.2169C7.58174 12.017 7.51512 11.3555 7.07889 10.9193C6.64267 10.483 5.98117 10.4164 4.78125 10.4062" stroke="white" stroke-width="1.125" stroke-linecap="round"/>
<path d="M10.4062 4.78174C10.4164 5.98167 10.483 6.64316 10.9193 7.07939C11.3555 7.51561 12.017 7.58224 13.2169 7.59241" stroke="white" stroke-width="1.125" stroke-linecap="round"/>
<path d="M10.4062 13.2169C10.4164 12.017 10.483 11.3555 10.9193 10.9193C11.3555 10.483 12.017 10.4164 13.2169 10.4062" stroke="white" stroke-width="1.125" stroke-linecap="round"/>
<path d="M16.0312 9C16.0312 12.3145 16.0312 13.9719 15.0015 15.0015C13.9719 16.0312 12.3145 16.0312 9 16.0312C5.68543 16.0312 4.02815 16.0312 2.99846 15.0015C1.96875 13.9719 1.96875 12.3145 1.96875 9C1.96875 5.68543 1.96875 4.02815 2.99846 2.99846C4.02815 1.96875 5.68543 1.96875 9 1.96875C12.3145 1.96875 13.9719 1.96875 15.0015 2.99846C15.6862 3.68312 15.9157 4.64523 15.9925 6.1875" stroke="white" stroke-width="1.125" stroke-linecap="round"/>
</svg>
