<svg width="19" height="19" viewBox="0 0 19 19" fill="none" xmlns="http://www.w3.org/2000/svg">
<path d="M15.475 5.28247H3.52539" stroke="white" stroke-width="1.13" stroke-linecap="round"/>
<path d="M7.74268 8.79712L8.09413 12.3117" stroke="white" stroke-width="1.13" stroke-linecap="round"/>
<path d="M11.2572 8.79712L10.9058 12.3117" stroke="white" stroke-width="1.13" stroke-linecap="round"/>
<path d="M5.63379 5.28246C5.67307 5.28246 5.69271 5.28246 5.71051 5.28201C6.28932 5.26734 6.79994 4.8993 6.9969 4.35483C7.00296 4.33808 7.00916 4.31945 7.02159 4.28218L7.08983 4.07745C7.14809 3.90269 7.17722 3.8153 7.21585 3.7411C7.37 3.44508 7.65519 3.23953 7.98477 3.1869C8.06738 3.17371 8.15951 3.17371 8.34374 3.17371H10.6559C10.8402 3.17371 10.9323 3.17371 11.0149 3.1869C11.3445 3.23953 11.6297 3.44508 11.7838 3.7411C11.8225 3.8153 11.8516 3.90269 11.9099 4.07745L11.9781 4.28218C11.9905 4.3194 11.9967 4.33809 12.0028 4.35483C12.1997 4.8993 12.7103 5.26734 13.2892 5.28201C13.307 5.28246 13.3266 5.28246 13.3659 5.28246" stroke="white" stroke-width="1.13"/>
<path d="M13.98 11.8893C13.8556 13.7555 13.7934 14.6886 13.1854 15.2574C12.5774 15.8263 11.6422 15.8263 9.77187 15.8263H9.22824C7.35791 15.8263 6.42275 15.8263 5.81472 15.2574C5.20669 14.6886 5.14449 13.7555 5.02008 11.8893L4.69678 7.03979M14.3033 7.03979L14.1627 9.14855" stroke="white" stroke-width="1.13" stroke-linecap="round"/>
</svg>
