<svg width="10" height="10" viewBox="0 0 10 10" fill="none" xmlns="http://www.w3.org/2000/svg">
<g clip-path="url(#clip0_474_8620)">
<path d="M5 6.95312V7.34375" stroke="#313131" stroke-width="0.625" stroke-linecap="round"/>
<path d="M5 2.65625V3.04688" stroke="#313131" stroke-width="0.625" stroke-linecap="round"/>
<path d="M6.17188 4.02344C6.17188 3.4841 5.64723 3.04688 5 3.04688C4.35277 3.04688 3.82812 3.4841 3.82812 4.02344C3.82812 4.56277 4.35277 5 5 5C5.64723 5 6.17188 5.43723 6.17188 5.97656C6.17188 6.5159 5.64723 6.95312 5 6.95312C4.35277 6.95312 3.82812 6.5159 3.82812 5.97656" stroke="#313131" stroke-width="0.625" stroke-linecap="round"/>
<path d="M3.04688 1.61634C3.62143 1.28397 4.28852 1.09375 5 1.09375C7.15734 1.09375 8.90625 2.84264 8.90625 5C8.90625 7.15734 7.15734 8.90625 5 8.90625C2.84264 8.90625 1.09375 7.15734 1.09375 5C1.09375 4.28852 1.28397 3.62143 1.61634 3.04688" stroke="#313131" stroke-width="0.625" stroke-linecap="round"/>
</g>
<defs>
<clipPath id="clip0_474_8620">
<rect width="10" height="10" fill="white"/>
</clipPath>
</defs>
</svg>
