<svg width="38" height="38" viewBox="0 0 38 38" fill="none" xmlns="http://www.w3.org/2000/svg">
<mask id="mask0_3002_2229" style="mask-type:alpha" maskUnits="userSpaceOnUse" x="0" y="0" width="38" height="38">
<rect width="38" height="38" fill="white"/>
</mask>
<g mask="url(#mask0_3002_2229)">
<rect width="38.5846" height="38.5846" fill="#EAFFEA"/>
</g>
<path d="M22.7501 18.265C21.6905 17.6794 20.5641 17.2333 19.4488 16.7705C18.802 16.5028 18.183 16.1906 17.6365 15.7556C16.5603 14.8968 16.7666 13.5027 18.0269 12.9507C18.3837 12.7945 18.7574 12.7443 19.1366 12.722C20.5976 12.644 21.9861 12.9116 23.3077 13.5473C23.9657 13.8652 24.1832 13.7648 24.4063 13.0789C24.6405 12.354 24.8356 11.6179 25.0531 10.8874C25.1981 10.3967 25.0197 10.0732 24.5568 9.86692C23.7092 9.4933 22.8393 9.22563 21.9248 9.08065C20.7314 8.89663 20.7314 8.89105 20.7258 7.69213C20.7203 6.00248 20.7203 6.00248 19.025 6.00248C18.7797 6.00248 18.5343 5.9969 18.2889 6.00248C17.4971 6.02478 17.3633 6.16419 17.341 6.96162C17.3298 7.31851 17.341 7.6754 17.3354 8.03786C17.3298 9.09738 17.3242 9.08065 16.3093 9.44869C13.8557 10.3409 12.3389 12.0138 12.1772 14.6905C12.0322 17.0605 13.2702 18.6609 15.2164 19.8264C16.4153 20.5457 17.7425 20.9695 19.0139 21.5327C19.5102 21.7502 19.9842 22.0012 20.3968 22.3469C21.6181 23.3562 21.395 25.0347 19.9451 25.6704C19.17 26.0106 18.3503 26.0942 17.5083 25.9883C16.209 25.8266 14.9654 25.4864 13.7944 24.8786C13.1085 24.5217 12.9077 24.6165 12.6735 25.3581C12.4728 25.9994 12.2943 26.6463 12.1159 27.2932C11.8761 28.1631 11.9653 28.3694 12.7962 28.7765C13.8557 29.2895 14.9877 29.5516 16.142 29.7356C17.0454 29.8806 17.0733 29.9196 17.0844 30.8565C17.09 31.2803 17.09 31.7097 17.0956 32.1335C17.1012 32.6688 17.3577 32.9811 17.9098 32.9922C18.5343 33.0034 19.1644 33.0034 19.789 32.9867C20.302 32.9755 20.5641 32.6967 20.5641 32.1781C20.5641 31.5981 20.592 31.0126 20.5697 30.4327C20.5418 29.8416 20.7983 29.5404 21.3671 29.3843C22.6776 29.0274 23.7928 28.3248 24.6516 27.2764C27.0383 24.3767 26.1294 20.1331 22.7501 18.265Z" fill="#313131"/>
</svg>
