<svg width="20" height="20" viewBox="0 0 20 20" fill="none" xmlns="http://www.w3.org/2000/svg">
<path d="M2.1875 10C2.1875 13.6828 2.1875 15.5243 3.33162 16.6684C4.47573 17.8125 6.31715 17.8125 10 17.8125C13.6828 17.8125 15.5243 17.8125 16.6684 16.6684C17.8125 15.5243 17.8125 13.6828 17.8125 10V8.82813M11.1719 2.1875H10C6.31715 2.1875 4.47573 2.1875 3.33162 3.33162C2.57088 4.09235 2.31597 5.16137 2.23055 6.875" stroke="#FFF7CC" stroke-width="1.25" stroke-linecap="round"/>
<path d="M13.6344 3.32427L14.1413 2.81738C14.9812 1.97754 16.3428 1.97754 17.1827 2.81738C18.0224 3.65722 18.0224 5.01887 17.1827 5.85871L16.6757 6.36559M13.6344 3.32427C13.6344 3.32427 13.6977 4.4014 14.6482 5.35181C15.5986 6.30223 16.6757 6.36559 16.6757 6.36559M13.6344 3.32427L8.97438 7.98432C8.65875 8.29996 8.50094 8.45774 8.36518 8.6318C8.20507 8.83703 8.06781 9.05914 7.95581 9.29414C7.86087 9.49336 7.79029 9.70508 7.64913 10.1286L7.1972 11.4844M16.6757 6.36559L14.3457 8.69563M7.1972 11.4844L6.90477 12.3616C6.83531 12.5701 6.88955 12.7998 7.04488 12.9552C7.2002 13.1105 7.42996 13.1647 7.63835 13.0952L8.51563 12.8028M7.1972 11.4844L8.51563 12.8028M12.0157 11.0256C11.7001 11.3413 11.5423 11.4991 11.3682 11.6348C11.163 11.7949 10.9409 11.9322 10.7059 12.0442C10.5066 12.1391 10.2949 12.2097 9.87141 12.3509L8.51563 12.8028" stroke="#FFF7CC" stroke-width="1.25" stroke-linecap="round"/>
</svg>
