<svg width="12" height="12" viewBox="0 0 12 12" fill="none" xmlns="http://www.w3.org/2000/svg">
<g clip-path="url(#clip0_612_6093)">
<path d="M1.31396 6.23436L2.13478 5.51617C2.56181 5.14255 3.20541 5.16396 3.60664 5.56519L5.61685 7.57539C5.93888 7.89747 6.44582 7.94137 6.81846 7.67947L6.9582 7.58129C7.49438 7.20444 8.21984 7.24811 8.70701 7.68654L10.2176 9.04603" stroke="#313131" stroke-width="0.753333" stroke-linecap="round"/>
<path d="M9.07517 1.75218L9.27063 1.55673C9.59449 1.23288 10.1195 1.23288 10.4434 1.55673C10.7672 1.88057 10.7672 2.40562 10.4434 2.72946L10.2479 2.92491M9.07517 1.75218C9.07517 1.75218 9.09963 2.16752 9.46609 2.534C9.83259 2.90048 10.2479 2.92491 10.2479 2.92491M9.07517 1.75218L7.27828 3.5491C7.15654 3.67081 7.09571 3.73166 7.04337 3.79876C6.98165 3.87791 6.9287 3.96355 6.88554 4.05417C6.84889 4.13099 6.82171 4.21263 6.76726 4.37592L6.59299 4.89872M10.2479 2.92491L8.45098 4.72183C8.32928 4.84354 8.26846 4.90439 8.20135 4.95673C8.1222 5.01847 8.03654 5.0714 7.94591 5.11456C7.86911 5.15121 7.78748 5.17839 7.62416 5.23284L7.10138 5.40712M6.59299 4.89872L6.48024 5.23701C6.45343 5.31733 6.47438 5.40594 6.53427 5.46583C6.59416 5.52572 6.68277 5.54667 6.76309 5.51986L7.10138 5.40712M6.59299 4.89872L7.10138 5.40712" stroke="#313131" stroke-width="0.753333"/>
<path d="M10.6862 5.99995C10.6862 8.20899 10.6862 9.31355 9.99991 9.99978C9.31367 10.6861 8.20911 10.6861 6.00008 10.6861C3.79102 10.6861 2.68649 10.6861 2.00023 9.99978C1.31396 9.31355 1.31396 8.20899 1.31396 5.99995C1.31396 5.47122 1.31396 5.00573 1.32337 4.59412M6.00008 1.31384C3.79102 1.31384 2.68649 1.31384 2.00023 2.00011C1.80116 2.19918 1.65983 2.43345 1.5595 2.71968" stroke="#313131" stroke-width="0.753333" stroke-linecap="round"/>
</g>
<defs>
<clipPath id="clip0_612_6093">
<rect width="12" height="12" fill="white"/>
</clipPath>
</defs>
</svg>
