<svg width="18" height="18" viewBox="0 0 18 18" fill="none" xmlns="http://www.w3.org/2000/svg">
<path d="M16.0312 9C16.0312 11.6516 16.0312 12.9775 15.2075 13.8012C14.3838 14.625 13.0579 14.625 10.4062 14.625H7.59375C4.9421 14.625 3.61628 14.625 2.79251 13.8012C1.96875 12.9775 1.96875 11.6516 1.96875 9C1.96875 6.34835 1.96875 5.02253 2.79251 4.19876C3.61628 3.375 4.9421 3.375 7.59375 3.375H10.4062C13.0579 3.375 14.3838 3.375 15.2075 4.19876C15.6667 4.65803 15.87 5.27336 15.9599 6.1875" stroke="white" stroke-width="1.125" stroke-linecap="round"/>
<path d="M13.2188 6.1875L11.7008 7.45248C10.4094 8.52863 9.76366 9.06673 9 9.06673C8.54346 9.06673 8.12911 8.87442 7.59375 8.48981M4.78125 6.1875L5.41406 6.71484L6.04688 7.24219" stroke="white" stroke-width="1.125" stroke-linecap="round"/>
</svg>
