<svg width="19" height="19" viewBox="0 0 19 19" fill="none" xmlns="http://www.w3.org/2000/svg">
<path d="M15.1658 7.89867C15.8327 7.52322 16.1662 7.3355 16.3487 7.03303C16.5313 6.73056 16.5312 6.36569 16.5312 5.63596V5.15093C16.5312 4.218 16.5312 3.75153 16.2224 3.4617C15.9134 3.17188 15.4162 3.17188 14.4219 3.17188H4.57812C3.58376 3.17188 3.08657 3.17188 2.77766 3.4617C2.46875 3.75153 2.46875 4.218 2.46875 5.15093V5.63596C2.46875 6.36569 2.46875 6.73056 2.65128 7.03303C2.83381 7.3355 3.16728 7.52322 3.83423 7.89867L5.88245 9.05169C6.32993 9.30355 6.55367 9.42955 6.71387 9.56862C7.04749 9.85824 7.25287 10.1986 7.34593 10.616C7.39063 10.8164 7.39062 11.051 7.39062 11.52V13.397C7.39062 14.0366 7.39063 14.3563 7.56776 14.6056C7.74489 14.8549 8.05949 14.9778 8.68873 15.2239C10.0096 15.7402 10.6701 15.9984 11.1398 15.7047C11.6094 15.4109 11.6094 14.7396 11.6094 13.397V11.52C11.6094 11.051 11.6094 10.8164 11.6541 10.616C11.7471 10.1986 11.9525 9.85824 12.2861 9.56862" stroke="white" stroke-width="1.125" stroke-linecap="round"/>
</svg>
