<svg width="16" height="17" viewBox="0 0 16 17" fill="none" xmlns="http://www.w3.org/2000/svg">
<path d="M8 11.625V7.875" stroke="white" stroke-linecap="round"/>
<path d="M7.375 6C7.375 5.83424 7.44085 5.67527 7.55806 5.55806C7.67527 5.44085 7.83424 5.375 8 5.375C8.16576 5.375 8.32473 5.44085 8.44194 5.55806C8.55915 5.67527 8.625 5.83424 8.625 6C8.625 6.16576 8.55915 6.32473 8.44194 6.44194C8.32473 6.55915 8.16576 6.625 8 6.625C7.83424 6.625 7.67527 6.55915 7.55806 6.44194C7.44085 6.32473 7.375 6.16576 7.375 6Z" fill="white"/>
<path d="M4.875 3.08614C5.79429 2.55436 6.86162 2.25 8 2.25C11.4518 2.25 14.25 5.04822 14.25 8.5C14.25 11.9518 11.4518 14.75 8 14.75C4.54822 14.75 1.75 11.9518 1.75 8.5C1.75 7.36162 2.05436 6.29429 2.58614 5.375" stroke="white" stroke-linecap="round"/>
</svg>
