<svg width="21" height="20" viewBox="0 0 21 20" fill="none" xmlns="http://www.w3.org/2000/svg">
<path d="M10.5 13.9065V9.21899" stroke="#FFAF9D" stroke-width="1.25" stroke-linecap="round"/>
<path d="M9.71875 6.87524C9.71875 6.66804 9.80106 6.46933 9.94757 6.32282C10.0941 6.1763 10.2928 6.09399 10.5 6.09399C10.7072 6.09399 10.9059 6.1763 11.0524 6.32282C11.1989 6.46933 11.2812 6.66804 11.2812 6.87524C11.2812 7.08244 11.1989 7.28116 11.0524 7.42767C10.9059 7.57418 10.7072 7.65649 10.5 7.65649C10.2928 7.65649 10.0941 7.57418 9.94757 7.42767C9.80106 7.28116 9.71875 7.08244 9.71875 6.87524Z" fill="#FFAF9D"/>
<path d="M18.3125 10.0002C18.3125 13.6831 18.3125 15.5245 17.1684 16.6686C16.0243 17.8127 14.1828 17.8127 10.5 17.8127C6.81715 17.8127 4.97573 17.8127 3.83162 16.6686C2.6875 15.5245 2.6875 13.6831 2.6875 10.0002C2.6875 6.31739 2.6875 4.47597 3.83162 3.33186C4.97573 2.18774 6.81715 2.18774 10.5 2.18774C14.1828 2.18774 16.0243 2.18774 17.1684 3.33186C17.9291 4.0926 18.1841 5.16161 18.2695 6.87524" stroke="#FFAF9D" stroke-width="1.25" stroke-linecap="round"/>
</svg>
