<svg width="18" height="19" viewBox="0 0 18 19" fill="none" xmlns="http://www.w3.org/2000/svg">
<path d="M11.1094 9.5H4.78125M4.78125 9.5L6.1875 10.9062M4.78125 9.5L6.1875 8.09375" stroke="white" stroke-width="1.125" stroke-linecap="round" stroke-linejoin="round"/>
<path d="M8.99977 16.5191C7.90747 16.4862 7.25599 16.3643 6.80508 15.9134C6.26481 15.3731 6.19699 14.5449 6.18848 13.0156M11.8123 16.5301C13.3416 16.5215 14.1698 16.4537 14.7101 15.9134C15.3279 15.2956 15.3279 14.3012 15.3279 12.3125V6.6875C15.3279 4.69876 15.3279 3.70439 14.7101 3.08657C14.0922 2.46875 13.0979 2.46875 11.1091 2.46875H10.406C8.41724 2.46875 7.4229 2.46875 6.80508 3.08657C6.26481 3.62684 6.19699 4.45506 6.18848 5.98438" stroke="white" stroke-width="1.125" stroke-linecap="round"/>
<path d="M2.67188 7.74219V11.2578C2.67188 12.9151 2.67188 13.7437 3.18672 14.2586C3.70158 14.7734 4.53022 14.7734 6.1875 14.7734M3.18672 4.74141C3.70158 4.22656 4.53022 4.22656 6.1875 4.22656" stroke="white" stroke-width="1.125" stroke-linecap="round"/>
</svg>
