<svg width="26" height="26" viewBox="0 0 26 26" fill="none" xmlns="http://www.w3.org/2000/svg">
<path d="M9.95312 14.0156H16.0469" stroke="white" stroke-width="1.625" stroke-linecap="round"/>
<path d="M9.95312 9.95312H16.0469" stroke="white" stroke-width="1.625" stroke-linecap="round"/>
<path d="M9.95312 18.0781H13" stroke="white" stroke-width="1.625" stroke-linecap="round"/>
<path d="M2.84375 20.1094V5.89062" stroke="white" stroke-width="1.625" stroke-linecap="round"/>
<path d="M23.1562 20.1094V5.89062" stroke="white" stroke-width="1.625" stroke-linecap="round"/>
<path d="M20.1094 17.0625C20.1094 19.9351 20.1094 21.3714 19.2169 22.2638C18.3245 23.1562 16.8882 23.1562 14.0156 23.1562H11.9844C9.11175 23.1562 7.67544 23.1562 6.78303 22.2638C5.89062 21.3714 5.89062 19.9351 5.89062 17.0625V13M5.89062 8.9375C5.89062 6.06488 5.89062 4.62857 6.78303 3.73616C7.67544 2.84375 9.11175 2.84375 11.9844 2.84375H14.0156C16.8882 2.84375 18.3245 2.84375 19.2169 3.73616C20.1094 4.62857 20.1094 6.06488 20.1094 8.9375V13" stroke="white" stroke-width="1.625" stroke-linecap="round"/>
</svg>
