<svg width="21" height="20" viewBox="0 0 21 20" fill="none" xmlns="http://www.w3.org/2000/svg">
<path d="M18.3098 11.5622C18.3098 14.5076 18.3098 15.9803 17.3948 16.8953C16.4798 17.8104 15.0071 17.8104 12.0617 17.8104H8.9376C5.99219 17.8104 4.5195 17.8104 3.60447 16.8953C2.68945 15.9803 2.68945 14.5076 2.68945 11.5622C2.68945 8.61676 2.68945 7.14409 3.60447 6.22906C4.11462 5.71892 4.79812 5.49319 5.81353 5.39331M15.1858 5.39331C16.2012 5.49319 16.8846 5.71892 17.3948 6.22906C17.9049 6.7392 18.1307 7.42269 18.2306 8.43806" stroke="white" stroke-width="1.25556" stroke-linecap="round"/>
<path d="M8.93799 5.31396H12.0621" stroke="white" stroke-width="1.25556" stroke-linecap="round"/>
<path d="M9.71875 7.65698H11.2808" stroke="white" stroke-width="1.25556" stroke-linecap="round"/>
<path d="M12.0621 2.19214C13.395 2.20344 14.1298 2.27743 14.6143 2.76199C15.1862 3.33388 15.1862 4.25432 15.1862 6.09519V7.70663C15.1862 8.0664 15.1862 8.24628 15.1125 8.40371C15.0387 8.56116 14.9005 8.67629 14.6242 8.90661L14.0621 9.37499M8.93804 2.19214C7.60518 2.20344 6.8704 2.27743 6.38585 2.76199C5.81396 3.33388 5.81396 4.25432 5.81396 6.09519V7.70663C5.81396 8.0664 5.81396 8.24628 5.8877 8.40371C5.96144 8.56116 6.09963 8.67629 6.37601 8.90661L7.50011 9.84336C8.93455 11.0387 9.65181 11.6364 10.5001 11.6364C11.0072 11.6364 11.4674 11.4228 12.0621 10.9957" stroke="white" stroke-width="1.25556" stroke-linecap="round"/>
</svg>
