<svg width="18" height="18" viewBox="0 0 18 18" fill="none" xmlns="http://www.w3.org/2000/svg">
<path d="M9 5.48438V9.70312" stroke="#313131" stroke-width="1.125" stroke-linecap="round"/>
<path d="M8.29688 11.8125C8.29688 11.999 8.37095 12.1778 8.50282 12.3097C8.63468 12.4415 8.81352 12.5156 9 12.5156C9.18648 12.5156 9.36532 12.4415 9.49718 12.3097C9.62905 12.1778 9.70312 11.999 9.70312 11.8125C9.70312 11.626 9.62905 11.4472 9.49718 11.3153C9.36532 11.1835 9.18648 11.1094 9 11.1094C8.81352 11.1094 8.63468 11.1835 8.50282 11.3153C8.37095 11.4472 8.29688 11.626 8.29688 11.8125Z" fill="#313131"/>
<path d="M5.48437 2.9094C6.51858 2.31115 7.71933 1.96875 9 1.96875C12.8832 1.96875 16.0312 5.11675 16.0312 9C16.0312 12.8832 12.8832 16.0312 9 16.0312C5.11675 16.0312 1.96875 12.8832 1.96875 9C1.96875 7.71933 2.31115 6.51858 2.9094 5.48437" stroke="#313131" stroke-width="1.125" stroke-linecap="round"/>
</svg>
