<svg width="18" height="19" viewBox="0 0 18 19" fill="none" xmlns="http://www.w3.org/2000/svg">
<path d="M6.96618 2.94275C7.5826 2.63881 8.2722 2.46875 9 2.46875C11.6208 2.46875 13.7455 4.67391 13.7455 7.39412V7.88954C13.7455 8.48413 13.9151 9.06533 14.2328 9.56005L15.0114 10.7723C15.7227 11.8796 15.1798 13.3847 13.9427 13.7349C10.7067 14.6509 7.29333 14.6509 4.05728 13.7349C2.82027 13.3847 2.2773 11.8796 2.98853 10.7723L3.7672 9.56005C4.08496 9.06533 4.25452 8.48413 4.25452 7.88954V7.39412C4.25452 6.63869 4.41837 5.92299 4.71121 5.2832" stroke="white" stroke-width="1.125" stroke-linecap="round"/>
<path d="M5.83594 14.4219C6.29651 15.6508 7.53923 16.5312 9 16.5312C9.17191 16.5312 9.3408 16.5191 9.50569 16.4955M12.1641 14.4219C11.9763 14.9229 11.6585 15.366 11.2489 15.7151" stroke="white" stroke-width="1.125" stroke-linecap="round"/>
</svg>
