<svg width="18" height="18" viewBox="0 0 18 18" fill="none" xmlns="http://www.w3.org/2000/svg">
<path d="M5.9332 12.56C5.72613 12.3552 5.39223 12.357 5.18743 12.5641C4.98263 12.7711 4.98446 13.1051 5.19153 13.3098L5.9332 12.56ZM14.6334 6.33267C14.7135 6.61267 15.0055 6.7747 15.2854 6.69457C15.5654 6.61444 15.7274 6.32249 15.6473 6.04249L14.6334 6.33267ZM15.6035 9.15948C15.6914 8.88181 15.5377 8.58545 15.2601 8.49741C14.9825 8.40938 14.6861 8.56309 14.5981 8.84068L15.6035 9.15948ZM9.78476 8.21532C9.44156 7.87206 9.44156 7.31558 9.78476 6.97235L9.03903 6.22657C8.28387 6.98169 8.28387 8.20597 9.03903 8.96105L9.78476 8.21532ZM11.0277 8.21532C10.6845 8.55852 10.128 8.55852 9.78476 8.21532L9.03903 8.96105C9.79411 9.71621 11.0184 9.71621 11.7735 8.96105L11.0277 8.21532ZM11.0277 6.97235C11.3709 7.31558 11.3709 7.87206 11.0277 8.21532L11.7735 8.96105C12.5286 8.20597 12.5286 6.98169 11.7735 6.22657L11.0277 6.97235ZM11.7735 6.22657C11.0184 5.47145 9.79411 5.47145 9.03903 6.22657L9.78476 6.97235C10.128 6.62911 10.6845 6.62911 11.0277 6.97235L11.7735 6.22657ZM14.2786 3.72142C12.1762 1.619 8.76755 1.619 6.66512 3.72142L7.4109 4.4672C9.10146 2.77666 11.8423 2.77666 13.5329 4.4672L14.2786 3.72142ZM5.21385 9.09711L2.60379 11.7072L3.34956 12.453L5.95963 9.84291L5.21385 9.09711ZM6.29289 15.3963L7.16505 14.5241L6.41927 13.7784L5.54712 14.6505L6.29289 15.3963ZM7.16505 14.5241L8.90318 12.7861L8.15738 12.0403L6.41927 13.7784L7.16505 14.5241ZM2.15413 12.989L2.31731 14.4576L3.36554 14.3412L3.20236 12.8726L2.15413 12.989ZM3.54248 15.6828L5.01102 15.846L5.12749 14.7977L3.65895 14.6346L3.54248 15.6828ZM2.66748 15.1862L2.81388 15.3326L3.55966 14.5868L3.41326 14.4404L2.66748 15.1862ZM3.65895 14.6346C3.62139 14.6304 3.58638 14.6135 3.55966 14.5868L2.81388 15.3326C3.00995 15.5286 3.2669 15.6521 3.54248 15.6828L3.65895 14.6346ZM2.31731 14.4576C2.34792 14.7331 2.47142 14.9901 2.66748 15.1862L3.41326 14.4404C3.38654 14.4137 3.36972 14.3787 3.36554 14.3412L2.31731 14.4576ZM5.54712 14.6505C5.43686 14.7608 5.28246 14.8149 5.12749 14.7977L5.01102 15.846C5.48443 15.8986 5.95608 15.7331 6.29289 15.3963L5.54712 14.6505ZM2.60379 11.7072C2.26698 12.044 2.10153 12.5156 2.15413 12.989L3.20236 12.8726C3.18515 12.7176 3.23931 12.5632 3.34956 12.453L2.60379 11.7072ZM6.27944 8.60956C5.91086 7.17427 6.28884 5.58926 7.4109 4.4672L6.66512 3.72142C5.26867 5.11788 4.80041 7.0904 5.25789 8.8719L6.27944 8.60956ZM13.5329 10.5892C12.4108 11.7113 10.8258 12.0892 9.39052 11.7207L9.12818 12.7422C10.9097 13.1997 12.8822 12.7314 14.2786 11.3349L13.5329 10.5892ZM8.90318 12.7861C8.94242 12.7468 9.02278 12.7151 9.12818 12.7422L9.39052 11.7207C8.97715 11.6145 8.49692 11.7007 8.15738 12.0403L8.90318 12.7861ZM5.95963 9.84291C6.299 9.50352 6.38566 9.02321 6.27944 8.60956L5.25789 8.8719C5.2849 8.97702 5.25324 9.05773 5.21385 9.09711L5.95963 9.84291ZM7.16299 13.7763L5.9332 12.56L5.19153 13.3098L6.42133 14.5261L7.16299 13.7763ZM13.5329 4.4672C14.0716 5.00598 14.438 5.65007 14.6334 6.33267L15.6473 6.04249C15.404 5.19213 14.9472 4.39004 14.2786 3.72142L13.5329 4.4672ZM14.5981 8.84068C14.3954 9.47968 14.0408 10.0812 13.5329 10.5892L14.2786 11.3349C14.9089 10.7047 15.351 9.95577 15.6035 9.15948L14.5981 8.84068Z" fill="white"/>
</svg>
