<svg width="18" height="18" viewBox="0 0 18 18" fill="none" xmlns="http://www.w3.org/2000/svg">
<path d="M6.1875 4.78125C6.1875 5.52717 6.48382 6.24254 7.01126 6.76999C7.53871 7.29743 8.25408 7.59375 9 7.59375C9.74592 7.59375 10.4613 7.29743 10.9887 6.76999C11.5162 6.24254 11.8125 5.52717 11.8125 4.78125C11.8125 4.03533 11.5162 3.31996 10.9887 2.79251C10.4613 2.26507 9.74592 1.96875 9 1.96875C8.25408 1.96875 7.53871 2.26507 7.01126 2.79251C6.48382 3.31996 6.1875 4.03533 6.1875 4.78125Z" stroke="white" stroke-width="1.125"/>
<path d="M14.625 12.8672C14.625 14.6147 14.625 16.0312 9 16.0312C3.375 16.0312 3.375 14.6147 3.375 12.8672C3.375 11.1197 5.8934 9.70312 9 9.70312C12.1066 9.70312 14.625 11.1197 14.625 12.8672Z" stroke="white" stroke-width="1.125"/>
</svg>
