<svg width="37" height="36" viewBox="0 0 37 36" fill="none" xmlns="http://www.w3.org/2000/svg">
<path d="M20 22.6875C21.5533 22.6875 22.8125 21.6381 22.8125 20.3438C22.8125 19.0493 21.5533 18 20 18C18.4467 18 17.1875 16.9507 17.1875 15.6562C17.1875 14.3618 18.4467 13.3125 20 13.3125M20 22.6875C18.4467 22.6875 17.1875 21.6381 17.1875 20.3438M20 22.6875V23.625M20 13.3125V12.375M20 13.3125C21.5533 13.3125 22.8125 14.3618 22.8125 15.6562" stroke="#98FF98" stroke-width="2.25" stroke-linecap="round"/>
<path d="M27.0312 5.81881C24.9628 4.6223 22.5613 3.9375 20 3.9375C12.2335 3.9375 5.9375 10.2335 5.9375 18C5.9375 20.2496 6.46572 22.3757 7.40487 24.2613C7.65445 24.7624 7.73751 25.3351 7.59283 25.8758L6.75525 29.0063C6.39165 30.3652 7.63486 31.6083 8.99377 31.2448L12.1241 30.4072C12.6649 30.2625 13.2376 30.3456 13.7387 30.5951C15.6243 31.5343 17.7504 32.0625 20 32.0625C27.7664 32.0625 34.0625 25.7664 34.0625 18C34.0625 15.4387 33.3777 13.0372 32.1812 10.9688" stroke="#98FF98" stroke-width="2.25" stroke-linecap="round"/>
</svg>
