<svg width="37" height="36" viewBox="0 0 37 36" fill="none" xmlns="http://www.w3.org/2000/svg">
<path d="M11.5625 15.1875H17.1875" stroke="#98FF98" stroke-width="2.25" stroke-linecap="round" stroke-linejoin="round"/>
<path d="M34.0593 18.7031C34.0593 18.5943 34.0625 17.954 34.0593 17.908C34.0095 17.2038 33.4055 16.643 32.6471 16.5967C32.5976 16.5938 32.5391 16.5938 32.4218 16.5938H28.7621C26.2529 16.5938 24.2188 18.4825 24.2188 20.8125C24.2188 23.1425 26.2529 25.0312 28.7621 25.0312H32.4218C32.5391 25.0312 32.5976 25.0313 32.6471 25.0283C33.4055 24.982 34.0095 24.4212 34.0593 23.717C34.0625 23.671 34.0625 23.0307 34.0625 22.9219" stroke="#98FF98" stroke-width="2.25" stroke-linecap="round"/>
<path d="M27.0312 20.8125C27.0312 21.1855 27.1794 21.5431 27.4431 21.8069C27.7069 22.0706 28.0645 22.2188 28.4375 22.2188C28.8105 22.2188 29.1681 22.0706 29.4319 21.8069C29.6956 21.5431 29.8438 21.1855 29.8438 20.8125C29.8438 20.4395 29.6956 20.0819 29.4319 19.8181C29.1681 19.5544 28.8105 19.4062 28.4375 19.4062C28.0645 19.4062 27.7069 19.5544 27.4431 19.8181C27.1794 20.0819 27.0312 20.4395 27.0312 20.8125Z" fill="#98FF98"/>
<path d="M17.1875 32.0625H21.4062C26.7095 32.0625 29.3613 32.0625 31.0087 30.4149C32.1452 29.2785 32.4978 27.6642 32.607 25.0312M32.607 16.5938C32.4978 13.9608 32.1452 12.3465 31.0087 11.21C29.3613 9.5625 26.7095 9.5625 21.4062 9.5625H17.1875C11.8842 9.5625 9.23255 9.5625 7.58502 11.21C5.9375 12.8576 5.9375 15.5092 5.9375 20.8125C5.9375 26.1158 5.9375 28.7675 7.58502 30.4149C8.50355 31.3335 9.73422 31.7399 11.5625 31.9198" stroke="#98FF98" stroke-width="2.25" stroke-linecap="round"/>
<path d="M11.5625 9.5625L16.8155 6.07941C18.2948 5.09853 20.299 5.09853 21.7782 6.07941L27.0312 9.5625" stroke="#98FF98" stroke-width="2.25" stroke-linecap="round"/>
</svg>
