<svg width="16" height="16" viewBox="0 0 16 16" fill="none" xmlns="http://www.w3.org/2000/svg">
<path d="M8 8.9376V10.8126M8.93731 8.68616C8.04069 9.20384 6.89412 8.8966 6.37647 7.99997C5.85879 7.10335 6.166 5.95678 7.06269 5.4391C7.42812 5.22808 7.83519 5.15412 8.22419 5.20128C8.7895 5.2698 9.31687 5.59412 9.6235 6.12528C9.93019 6.65644 9.94737 7.27528 9.72406 7.79916C9.57037 8.15966 9.30281 8.47516 8.93731 8.68616Z" stroke="white" stroke-linecap="round"/>
<path d="M2.375 7.01044C2.375 5.01192 2.375 4.01268 2.61095 3.67651C2.84689 3.34034 3.78645 3.01873 5.66557 2.37549L6.02357 2.25295C7.00312 1.91765 7.49287 1.75 8 1.75C8.50713 1.75 8.99688 1.91765 9.97644 2.25295L10.3344 2.37549C12.2136 3.01873 13.1531 3.34034 13.3891 3.67651C13.625 4.01268 13.625 5.01192 13.625 7.01044V7.99463C13.625 9.56019 13.102 10.7678 12.375 11.6901M2.49553 9.25C3.03141 11.9365 5.23526 13.3206 6.6866 13.9546C7.1375 14.1515 7.36294 14.25 8 14.25C8.63706 14.25 8.8625 14.1515 9.31338 13.9546C9.67475 13.7967 10.0827 13.5924 10.5 13.333" stroke="white" stroke-linecap="round"/>
</svg>
