<svg width="21" height="20" viewBox="0 0 21 20" fill="none" xmlns="http://www.w3.org/2000/svg">
<path d="M3.49362 10.8416C3.23911 10.3091 3.23911 9.69006 3.49362 9.15757C3.60366 8.92732 3.79131 8.70715 4.16661 8.26677C4.31598 8.09149 4.39067 8.00385 4.4534 7.91026C4.59721 7.69569 4.69702 7.45474 4.74704 7.20134C4.76887 7.0908 4.77803 6.97602 4.79635 6.74645C4.84237 6.16967 4.86539 5.88128 4.95037 5.64067C5.14693 5.08417 5.58466 4.64645 6.14116 4.44988C6.38176 4.3649 6.67016 4.34188 7.24694 4.29586C7.47651 4.27754 7.59129 4.26838 7.70183 4.24655C7.95523 4.19653 8.19618 4.09672 8.41074 3.95291C8.50434 3.89018 8.59198 3.81549 8.76726 3.66612C9.20765 3.29082 9.42782 3.10317 9.65806 2.99313C10.1906 2.73862 10.8096 2.73862 11.3421 2.99313C11.5723 3.10317 11.7925 3.29082 12.2329 3.66612C12.4082 3.81549 12.4958 3.89018 12.5895 3.95291C12.804 4.09672 13.045 4.19653 13.2983 4.24655C13.4089 4.26838 13.5236 4.27754 13.7533 4.29586C14.33 4.34188 14.6184 4.3649 14.859 4.44988C15.4155 4.64645 15.8533 5.08417 16.0498 5.64067M4.95037 14.3585C5.14693 14.915 5.58466 15.3528 6.14116 15.5493C6.38176 15.6343 6.67016 15.6573 7.24694 15.7034C7.47651 15.7216 7.59129 15.7309 7.70183 15.7526C7.95523 15.8027 8.19618 15.9024 8.41074 16.0463C8.50433 16.109 8.59198 16.1837 8.76726 16.3331C9.20765 16.7084 9.42782 16.8961 9.65806 17.0061C10.1906 17.2606 10.8096 17.2606 11.3421 17.0061C11.5723 16.8961 11.7925 16.7084 12.2329 16.3331C12.4082 16.1837 12.4958 16.109 12.5895 16.0463C12.804 15.9024 13.045 15.8027 13.2983 15.7526C13.4089 15.7309 13.5236 15.7216 13.7533 15.7034C14.33 15.6573 14.6184 15.6343 14.859 15.5493C15.4155 15.3528 15.8533 14.915 16.0498 14.3585C16.1348 14.1179 16.1578 13.8295 16.2039 13.2528C16.2221 13.0232 16.2313 12.9084 16.2531 12.7979C16.3031 12.5445 16.4029 12.3035 16.5468 12.089C16.6095 11.9953 16.6842 11.9077 16.8336 11.7324C17.2089 11.292 17.3966 11.0718 17.5066 10.8416C17.7611 10.3091 17.7611 9.69006 17.5066 9.15757" stroke="white" stroke-width="1.25556" stroke-linecap="round"/>
<path d="M8.15674 12.3431L12.8428 7.65698" stroke="white" stroke-width="1.25556" stroke-linecap="round"/>
<path d="M13.2334 11.9526C13.2334 12.384 12.8838 12.7337 12.4524 12.7337C12.021 12.7337 11.6714 12.384 11.6714 11.9526C11.6714 11.5213 12.021 11.1716 12.4524 11.1716C12.8838 11.1716 13.2334 11.5213 13.2334 11.9526Z" fill="white"/>
<path d="M9.32815 8.04738C9.32815 8.47873 8.97849 8.82839 8.54713 8.82839C8.11579 8.82839 7.76611 8.47873 7.76611 8.04738C7.76611 7.61604 8.11579 7.26636 8.54713 7.26636C8.97849 7.26636 9.32815 7.61604 9.32815 8.04738Z" fill="white"/>
</svg>
