<svg width="10" height="10" viewBox="0 0 10 10" fill="none" xmlns="http://www.w3.org/2000/svg">
<path d="M1.49586 5.42089C1.36857 5.15456 1.36857 4.84495 1.49586 4.57863C1.5509 4.46347 1.64475 4.35335 1.83246 4.13309C1.90717 4.04543 1.94452 4.0016 1.9759 3.95479C2.04782 3.84747 2.09774 3.72696 2.12276 3.60022C2.13368 3.54493 2.13825 3.48753 2.14742 3.37271C2.17044 3.08424 2.18195 2.94 2.22445 2.81966C2.32276 2.54133 2.54169 2.3224 2.82002 2.22409C2.94036 2.18158 3.0846 2.17007 3.37308 2.14705C3.4879 2.13789 3.5453 2.13331 3.60059 2.12239C3.72733 2.09737 3.84784 2.04745 3.95515 1.97553C4.00197 1.94415 4.0458 1.9068 4.13346 1.83209C4.35372 1.64438 4.46384 1.55053 4.579 1.4955C4.84533 1.3682 5.15493 1.3682 5.42126 1.4955C5.53642 1.55053 5.64654 1.64438 5.86681 1.83209C5.95447 1.9068 5.99829 1.94415 6.04513 1.97553C6.15243 2.04745 6.27294 2.09737 6.39966 2.12239C6.45497 2.13331 6.51236 2.13789 6.6272 2.14705C6.91568 2.17007 7.0599 2.18158 7.18025 2.22409C7.45857 2.3224 7.67751 2.54133 7.77583 2.81966M2.22445 7.17988C2.32276 7.4582 2.54169 7.67714 2.82002 7.77546C2.94036 7.81796 3.0846 7.82945 3.37308 7.85249C3.4879 7.86163 3.5453 7.86624 3.60059 7.87714C3.72733 7.90218 3.84784 7.95206 3.95515 8.02402C4.00196 8.05538 4.0458 8.09273 4.13346 8.16745C4.35372 8.35515 4.46384 8.44902 4.579 8.50406C4.84533 8.63132 5.15493 8.63132 5.42126 8.50406C5.53642 8.44902 5.64654 8.35515 5.86681 8.16745C5.95447 8.09273 5.99829 8.05538 6.04513 8.02402C6.15243 7.95206 6.27294 7.90218 6.39966 7.87714C6.45497 7.86624 6.51236 7.86163 6.6272 7.85249C6.91568 7.82945 7.0599 7.81796 7.18025 7.77546C7.45857 7.67714 7.67751 7.4582 7.77583 7.17988C7.81833 7.05952 7.82982 6.91531 7.85286 6.62683C7.862 6.51202 7.86657 6.4546 7.87751 6.39933C7.90251 6.27257 7.95243 6.15206 8.02439 6.04476C8.05575 5.99792 8.0931 5.9541 8.16783 5.86644C8.35552 5.64617 8.44939 5.53605 8.50443 5.42089C8.63169 5.15456 8.63169 4.84495 8.50443 4.57863" stroke="#313131" stroke-width="0.625" stroke-linecap="round"/>
<path d="M3.82812 6.17188L6.17188 3.82812" stroke="#313131" stroke-width="0.625" stroke-linecap="round"/>
<path d="M6.36719 5.97656C6.36719 6.1923 6.1923 6.36719 5.97656 6.36719C5.76082 6.36719 5.58594 6.1923 5.58594 5.97656C5.58594 5.76082 5.76082 5.58594 5.97656 5.58594C6.1923 5.58594 6.36719 5.76082 6.36719 5.97656Z" fill="#313131"/>
<path d="M4.41406 4.02344C4.41406 4.23918 4.23918 4.41406 4.02344 4.41406C3.8077 4.41406 3.63281 4.23918 3.63281 4.02344C3.63281 3.8077 3.8077 3.63281 4.02344 3.63281C4.23918 3.63281 4.41406 3.8077 4.41406 4.02344Z" fill="#313131"/>
</svg>
