<svg width="15" height="18" viewBox="0 0 15 18" fill="none" xmlns="http://www.w3.org/2000/svg">
<path d="M10.0522 13.8649C8.50627 15.9564 7.7333 17.0023 7.0121 16.7813C6.29099 16.5602 6.29099 15.2776 6.29099 12.7122L6.29107 12.4704C6.29107 11.5451 6.29107 11.0825 5.99537 10.7923L5.97975 10.7773C5.67773 10.4932 5.19623 10.4932 4.2332 10.4932C2.50022 10.4932 1.63374 10.4932 1.34089 9.96758C1.33604 9.95891 1.33133 9.95016 1.32675 9.94126C1.05031 9.40759 1.552 8.7288 2.5554 7.3712L4.94699 4.13542C6.49288 2.04381 7.26586 0.998008 7.98705 1.21901C8.70816 1.44001 8.70816 2.72268 8.70816 5.28804V5.52992C8.70816 6.45519 8.70816 6.91782 9.00386 7.20801L9.01948 7.22305C9.3215 7.50713 9.803 7.50713 10.766 7.50713C12.499 7.50713 13.3655 7.50713 13.6583 8.03268C13.6632 8.04135 13.6679 8.05018 13.6725 8.059C13.949 8.59275 13.4472 9.27153 12.4438 10.6291" stroke="white" stroke-width="1.25556" stroke-linecap="round"/>
</svg>
