<svg width="19" height="18" viewBox="0 0 19 18" fill="none" xmlns="http://www.w3.org/2000/svg">
<path d="M8.18213 6.80344C8.18213 6.07555 8.77223 5.48547 9.5001 5.48547C10.228 5.48547 10.8181 6.07555 10.8181 6.80344C10.8181 7.28666 10.558 7.70915 10.1703 7.93858C9.83609 8.13624 9.5001 8.43611 9.5001 8.82433V9.70297" stroke="#313131" stroke-width="1.13" stroke-linecap="round"/>
<path d="M8.79688 11.8117C8.79687 11.904 8.81506 11.9954 8.85038 12.0807C8.88571 12.166 8.93748 12.2434 9.00275 12.3087C9.06803 12.374 9.14552 12.4258 9.2308 12.4611C9.31608 12.4964 9.40748 12.5146 9.49979 12.5146C9.5921 12.5146 9.6835 12.4964 9.76879 12.4611C9.85407 12.4258 9.93156 12.374 9.99683 12.3087C10.0621 12.2434 10.1139 12.166 10.1492 12.0807C10.1845 11.9954 10.2027 11.904 10.2027 11.8117C10.2027 11.6253 10.1287 11.4465 9.99683 11.3146C9.86501 11.1828 9.68622 11.1088 9.49979 11.1088C9.31337 11.1088 9.13458 11.1828 9.00275 11.3146C8.87093 11.4465 8.79688 11.6253 8.79688 11.8117Z" fill="#313131"/>
<path d="M5.98529 2.9112C7.01919 2.31312 8.21958 1.97083 9.49987 1.97083C13.3819 1.97083 16.529 5.11789 16.529 8.99999C16.529 12.8821 13.3819 16.0292 9.49987 16.0292C5.61777 16.0292 2.4707 12.8821 2.4707 8.99999C2.4707 7.7197 2.813 6.51931 3.41108 5.48541" stroke="#313131" stroke-width="1.13" stroke-linecap="round"/>
</svg>
