<svg width="16" height="16" viewBox="0 0 16 16" fill="none" xmlns="http://www.w3.org/2000/svg">
<path d="M11.125 8C11.125 8.16576 11.1908 8.32473 11.3081 8.44194C11.4253 8.55915 11.5842 8.625 11.75 8.625C11.9158 8.625 12.0747 8.55915 12.1919 8.44194C12.3092 8.32473 12.375 8.16576 12.375 8C12.375 7.83424 12.3092 7.67527 12.1919 7.55806C12.0747 7.44085 11.9158 7.375 11.75 7.375C11.5842 7.375 11.4253 7.44085 11.3081 7.55806C11.1908 7.67527 11.125 7.83424 11.125 8Z" fill="white"/>
<path d="M14.25 7.0625C14.25 7.01413 14.25 6.72954 14.2486 6.70913C14.2264 6.39615 13.958 6.14685 13.6209 6.12634C13.5989 6.125 13.5729 6.125 13.5208 6.125H11.8942C10.7791 6.125 9.875 6.96444 9.875 8C9.875 9.03556 10.7791 9.875 11.8942 9.875H13.5208C13.5729 9.875 13.5989 9.875 13.6209 9.87369C13.958 9.85313 14.2264 9.60388 14.2486 9.29088C14.25 9.27044 14.2486 8.98587 14.2486 8.9375" stroke="white" stroke-linecap="round"/>
<path d="M8.625 3C10.982 3 12.1606 3 12.8927 3.73223C13.3979 4.23734 13.5546 4.95481 13.6031 6.125M6.75 13H8.625C10.982 13 12.1606 13 12.8927 12.2677C13.3979 11.7627 13.5546 11.0452 13.6031 9.875M6.125 3.00058C4.17856 3.00628 3.14667 3.0678 2.48223 3.73223C1.75 4.46447 1.75 5.64298 1.75 8C1.75 10.357 1.75 11.5356 2.48223 12.2677C2.89047 12.676 3.43743 12.8566 4.25 12.9366" stroke="white" stroke-linecap="round"/>
<path d="M4.875 6.125V6.75M4.875 9.875V8.3125" stroke="white" stroke-linecap="round"/>
</svg>
