<svg width="16" height="16" viewBox="0 0 16 16" fill="none" xmlns="http://www.w3.org/2000/svg">
<path d="M8 10.0833C8.69037 10.0833 9.25 9.61694 9.25 9.04169C9.25 8.46638 8.69037 8 8 8C7.30963 8 6.75 7.53363 6.75 6.95831C6.75 6.38304 7.30963 5.91667 8 5.91667M8 10.0833C7.30963 10.0833 6.75 9.61694 6.75 9.04169M8 10.0833V10.5M8 5.91667V5.5M8 5.91667C8.69037 5.91667 9.25 6.38304 9.25 6.95831" stroke="white" stroke-linecap="round"/>
<path d="M11.125 2.58614C10.2057 2.05436 9.13838 1.75 8 1.75C4.54822 1.75 1.75 4.54822 1.75 8C1.75 8.99981 1.98476 9.94475 2.40216 10.7828C2.51309 11.0055 2.55001 11.2601 2.4857 11.5004L2.11344 12.8917C1.95184 13.4956 2.50438 14.0481 3.10834 13.8866L4.49962 13.5143C4.73996 13.45 4.99451 13.4869 5.21721 13.5978C6.05523 14.0153 7.00019 14.25 8 14.25C11.4518 14.25 14.25 11.4518 14.25 8C14.25 6.86162 13.9456 5.79429 13.4139 4.875" stroke="white" stroke-linecap="round"/>
</svg>
