<svg width="18" height="19" viewBox="0 0 18 19" fill="none" xmlns="http://www.w3.org/2000/svg">
<path d="M11.9602 7.2846C12.1672 7.07986 12.1691 6.74607 11.9643 6.53905C11.7596 6.33203 11.4258 6.33018 11.2188 6.53492L11.9602 7.2846ZM8.05975 11.142L11.9602 7.2846L11.2188 6.53492L7.31836 10.3924L8.05975 11.142Z" fill="white"/>
<path d="M13.6642 12.0799C12.8135 14.632 12.3882 15.908 11.7644 16.2705C11.1711 16.6155 10.4382 16.6155 9.84492 16.2705C9.22115 15.908 8.79581 14.632 7.94514 12.0799C7.80857 11.6702 7.74024 11.4653 7.6256 11.294C7.51452 11.1281 7.37194 10.9854 7.20598 10.8744C7.03473 10.7597 6.82984 10.6914 6.42008 10.5548C3.86804 9.70417 2.59203 9.27883 2.22942 8.65507C1.88446 8.06173 1.88446 7.32889 2.22942 6.73553C2.59203 6.1118 3.86804 5.68646 6.42008 4.83578M14.6413 9.14865L14.8707 8.46036C15.9247 5.29837 16.4517 3.71737 15.6171 2.88282C14.7826 2.04827 13.2016 2.57527 10.0396 3.62927L9.29706 3.87678" stroke="white" stroke-width="1.13" stroke-linecap="round"/>
</svg>
