<svg width="16" height="16" viewBox="0 0 16 16" fill="none" xmlns="http://www.w3.org/2000/svg">
<path d="M5.40298 13.1221C6.67056 13.8728 7.30437 14.2481 8.00029 14.2481C8.69621 14.2481 9.33002 13.8728 10.5976 13.1221L11.0263 12.8682C12.2939 12.1176 12.9277 11.7422 13.2757 11.1241C13.6236 10.5059 13.6236 9.75521 13.6236 8.25384M13.5078 5.50072C13.4565 5.26803 13.3825 5.06572 13.2757 4.87591C12.9277 4.25769 12.2939 3.88237 11.0263 3.13171L10.5976 2.87782C9.33002 2.12716 8.69621 1.75183 8.00029 1.75183C7.30437 1.75183 6.67056 2.12716 5.40298 2.87782L4.97426 3.13171C3.70668 3.88237 3.0729 4.25769 2.72492 4.87591C2.37695 5.49412 2.37695 6.24477 2.37695 7.74612V8.25384C2.37695 9.75521 2.37695 10.5059 2.72492 11.1241C2.86635 11.3753 3.05498 11.5864 3.31418 11.799" stroke="white" stroke-width="1.00444" stroke-linecap="round"/>
<path d="M6.12549 7.99993C6.12549 8.49707 6.32297 8.97384 6.6745 9.32536C7.02603 9.67689 7.5028 9.87438 7.99993 9.87438C8.49707 9.87438 8.97384 9.67689 9.32536 9.32536C9.67689 8.97384 9.87438 8.49707 9.87438 7.99993C9.87438 7.5028 9.67689 7.02603 9.32536 6.6745C8.97384 6.32297 8.49707 6.12549 7.99993 6.12549C7.5028 6.12549 7.02603 6.32297 6.6745 6.6745C6.32297 7.02603 6.12549 7.5028 6.12549 7.99993Z" stroke="white" stroke-width="1.00444"/>
</svg>
