<svg width="16" height="16" viewBox="0 0 16 16" fill="none" xmlns="http://www.w3.org/2000/svg">
<path d="M4.875 11.75H8.3125" stroke="white" stroke-linecap="round"/>
<path d="M5.5 2.6875C5.5 2.16973 5.91973 1.75 6.4375 1.75H9.5625C10.0803 1.75 10.5 2.16973 10.5 2.6875V3.3125C10.5 3.83027 10.0803 4.25 9.5625 4.25H6.4375C5.91973 4.25 5.5 3.83027 5.5 3.3125V2.6875Z" stroke="white"/>
<path d="M13.625 10.5001C13.625 12.2679 13.625 13.1518 13.0758 13.7009C12.5266 14.2501 11.6428 14.2501 9.875 14.2501H6.125C4.35723 14.2501 3.47335 14.2501 2.92418 13.7009C2.375 13.1518 2.375 12.2679 2.375 10.5001V8.62513M10.5 3.00122C11.8594 3.00879 12.5956 3.06907 13.0758 3.54931C13.625 4.09848 13.625 4.98237 13.625 6.75013V8.00013M5.5 3.00122C4.14061 3.00879 3.40441 3.06907 2.92418 3.54931C2.44395 4.02953 2.38366 4.7657 2.37609 6.125" stroke="white" stroke-linecap="round"/>
<path d="M4.875 9.5625H5.5M9.875 9.5625H7.375" stroke="white" stroke-linecap="round"/>
</svg>
