<svg width="41" height="40" viewBox="0 0 41 40" fill="none" xmlns="http://www.w3.org/2000/svg">
<path d="M20.5 26.25V35.625M20.5 26.25L23.625 29.375M20.5 26.25L17.375 29.375" stroke="#EAFFEA" stroke-width="2.5" stroke-linecap="round" stroke-linejoin="round"/>
<path d="M36.125 22.1139C36.125 25.7747 33.8691 28.9148 30.6562 30.2506M24.2203 13.7925C25.1511 13.4674 26.1528 13.2904 27.1964 13.2904C28.2194 13.2904 29.202 13.4604 30.1173 13.7734M30.1173 13.7734C29.6205 9.36517 25.8373 5.9375 21.2441 5.9375C16.3129 5.9375 12.3155 9.88792 12.3155 14.761C12.3155 15.8389 12.511 16.8716 12.869 17.8264M30.1173 13.7734C31.5072 14.2487 32.7414 15.0537 33.7239 16.0938M12.869 17.8264C12.4492 17.7448 12.0154 17.7022 11.5714 17.7022C7.87309 17.7022 4.875 20.665 4.875 24.3198C4.875 27.283 6.84569 29.7912 9.5625 30.6345M12.869 17.8264C13.7509 17.9975 14.5707 18.3397 15.2917 18.8166" stroke="#EAFFEA" stroke-width="2.5" stroke-linecap="round"/>
</svg>
