<svg width="19" height="18" viewBox="0 0 19 18" fill="none" xmlns="http://www.w3.org/2000/svg">
<path d="M7.03955 9.35143L8.44538 10.7573L11.96 7.24268" stroke="#98FF98" stroke-width="1.13" stroke-linecap="round" stroke-linejoin="round"/>
<path d="M3.19426 9.75751C2.9652 9.27826 2.9652 8.72113 3.19426 8.24188C3.2933 8.03466 3.46218 7.83651 3.79995 7.44016C3.93438 7.28242 4.0016 7.20354 4.05806 7.1193C4.18749 6.9262 4.27732 6.70934 4.32234 6.48128C4.34198 6.38179 4.35022 6.27849 4.36671 6.07188C4.40814 5.55278 4.42885 5.29322 4.50534 5.07668C4.68224 4.57583 5.0762 4.18188 5.57704 4.00497C5.79359 3.92848 6.05314 3.90777 6.57225 3.86635C6.77886 3.84986 6.88216 3.84162 6.98165 3.82197C7.20971 3.77695 7.42657 3.68712 7.61966 3.55769C7.70391 3.50124 7.78278 3.43402 7.94053 3.29958C8.33688 2.96181 8.53504 2.79293 8.74226 2.69389C9.22151 2.46483 9.77864 2.46483 10.2579 2.69389C10.4651 2.79293 10.6633 2.96181 11.0596 3.29958C11.2174 3.43402 11.2962 3.50124 11.3805 3.55769C11.5736 3.68712 11.7905 3.77695 12.0185 3.82197C12.118 3.84162 12.2213 3.84986 12.4279 3.86635C12.947 3.90777 13.2066 3.92848 13.4231 4.00497C13.9239 4.18188 14.3179 4.57583 14.4949 5.07668M4.50534 12.9227C4.68224 13.4236 5.0762 13.8176 5.57704 13.9945C5.79359 14.071 6.05314 14.0916 6.57225 14.1331C6.77886 14.1495 6.88216 14.1578 6.98165 14.1775C7.20971 14.2225 7.42657 14.3123 7.61966 14.4417C7.7039 14.4982 7.78278 14.5654 7.94053 14.6999C8.33688 15.0376 8.53504 15.2065 8.74226 15.3056C9.22151 15.5346 9.77864 15.5346 10.2579 15.3056C10.4651 15.2065 10.6633 15.0376 11.0596 14.6999C11.2174 14.5654 11.2962 14.4982 11.3805 14.4417C11.5736 14.3123 11.7905 14.2225 12.0185 14.1775C12.118 14.1578 12.2213 14.1495 12.4279 14.1331C12.947 14.0916 13.2066 14.071 13.4231 13.9945C13.9239 13.8176 14.3179 13.4236 14.4949 12.9227C14.5713 12.7062 14.592 12.4467 14.6335 11.9276C14.6499 11.721 14.6581 11.6176 14.6778 11.5182C14.7228 11.2901 14.8126 11.0732 14.9421 10.8801C14.9986 10.7959 15.0658 10.717 15.2002 10.5593C15.538 10.1629 15.7069 9.96473 15.8059 9.75751C16.0349 9.27826 16.0349 8.72113 15.8059 8.24188" stroke="#98FF98" stroke-width="1.13" stroke-linecap="round"/>
</svg>
