<svg width="18" height="19" viewBox="0 0 18 19" fill="none" xmlns="http://www.w3.org/2000/svg">
<path d="M4.78125 8.09375H7.59375" stroke="white" stroke-width="1.125" stroke-linecap="round" stroke-linejoin="round"/>
<path d="M16.0296 9.85156C16.0296 9.79714 16.0313 9.47701 16.0296 9.45402C16.0047 9.10189 15.7027 8.82148 15.3236 8.79835C15.2988 8.79688 15.2696 8.79688 15.2109 8.79688H13.381C12.1264 8.79688 11.1094 9.74124 11.1094 10.9062C11.1094 12.0713 12.1264 13.0156 13.381 13.0156H15.2109C15.2696 13.0156 15.2988 13.0156 15.3236 13.0141C15.7027 12.991 16.0047 12.7106 16.0296 12.3585C16.0313 12.3355 16.0312 12.0154 16.0312 11.9609" stroke="white" stroke-width="1.125" stroke-linecap="round"/>
<path d="M12.5156 10.9062C12.5156 11.0927 12.5897 11.2716 12.7216 11.4034C12.8534 11.5353 13.0323 11.6094 13.2188 11.6094C13.4052 11.6094 13.5841 11.5353 13.7159 11.4034C13.8478 11.2716 13.9219 11.0927 13.9219 10.9062C13.9219 10.7198 13.8478 10.5409 13.7159 10.4091C13.5841 10.2772 13.4052 10.2031 13.2188 10.2031C13.0323 10.2031 12.8534 10.2772 12.7216 10.4091C12.5897 10.5409 12.5156 10.7198 12.5156 10.9062Z" fill="white"/>
<path d="M7.59375 16.5312H9.70312C12.3548 16.5312 13.6806 16.5312 14.5043 15.7075C15.0726 15.1393 15.2489 14.3321 15.3035 13.0156M15.3035 8.79688C15.2489 7.48041 15.0726 6.67326 14.5043 6.10501C13.6806 5.28125 12.3548 5.28125 9.70312 5.28125H7.59375C4.9421 5.28125 3.61628 5.28125 2.79251 6.10501C1.96875 6.92878 1.96875 8.25462 1.96875 10.9062C1.96875 13.5579 1.96875 14.8838 2.79251 15.7075C3.25178 16.1667 3.86711 16.37 4.78125 16.4599" stroke="white" stroke-width="1.125" stroke-linecap="round"/>
<path d="M4.78125 5.28125L7.40777 3.5397C8.14739 3.04927 9.14948 3.04927 9.8891 3.5397L12.5156 5.28125" stroke="white" stroke-width="1.125" stroke-linecap="round"/>
</svg>
